<mxfile host="Electron" agent="Mozilla/5.0 (Windows NT 10.0; Win64; x64) AppleWebKit/537.36 (KHTML, like Gecko) draw.io/28.0.6 Chrome/138.0.7204.100 Electron/37.2.3 Safari/537.36" version="28.0.6">
  <diagram name="Page-1" id="FeBkDMPhpHEgcSK9ZGvq">
    <mxGraphModel dx="2246" dy="1474" grid="1" gridSize="10" guides="1" tooltips="1" connect="1" arrows="1" fold="1" page="1" pageScale="1" pageWidth="850" pageHeight="1100" math="0" shadow="0">
      <root>
        <mxCell id="0" />
        <mxCell id="1" parent="0" />
        <mxCell id="KSx7vq9sP2LpVvgyy4LP-56" value="" style="rounded=0;whiteSpace=wrap;html=1;fillColor=none;strokeColor=default;dashed=1;" parent="1" vertex="1">
          <mxGeometry x="90" y="150" width="120" height="570" as="geometry" />
        </mxCell>
        <mxCell id="KSx7vq9sP2LpVvgyy4LP-83" style="edgeStyle=orthogonalEdgeStyle;rounded=0;orthogonalLoop=1;jettySize=auto;html=1;entryX=0;entryY=0.5;entryDx=0;entryDy=0;" parent="1" edge="1">
          <mxGeometry relative="1" as="geometry">
            <mxPoint x="184.00000000000023" y="354" as="sourcePoint" />
            <mxPoint x="368.25" y="280" as="targetPoint" />
            <Array as="points">
              <mxPoint x="276" y="354" />
              <mxPoint x="276" y="280" />
            </Array>
          </mxGeometry>
        </mxCell>
        <mxCell id="KSx7vq9sP2LpVvgyy4LP-96" style="edgeStyle=orthogonalEdgeStyle;rounded=0;orthogonalLoop=1;jettySize=auto;html=1;entryX=0;entryY=0.5;entryDx=0;entryDy=0;" parent="1" source="KSx7vq9sP2LpVvgyy4LP-57" target="KSx7vq9sP2LpVvgyy4LP-74" edge="1">
          <mxGeometry relative="1" as="geometry" />
        </mxCell>
        <mxCell id="KSx7vq9sP2LpVvgyy4LP-97" style="edgeStyle=orthogonalEdgeStyle;rounded=0;orthogonalLoop=1;jettySize=auto;html=1;entryX=0;entryY=0.5;entryDx=0;entryDy=0;" parent="1" source="KSx7vq9sP2LpVvgyy4LP-57" target="KSx7vq9sP2LpVvgyy4LP-73" edge="1">
          <mxGeometry relative="1" as="geometry" />
        </mxCell>
        <mxCell id="KSx7vq9sP2LpVvgyy4LP-57" value="&lt;b&gt;CRM&lt;/b&gt;" style="image;aspect=fixed;html=1;points=[];align=center;fontSize=24;image=img/lib/azure2/general/Folder_Blank.svg;" parent="1" vertex="1">
          <mxGeometry x="116" y="326" width="69" height="56.00000000000001" as="geometry" />
        </mxCell>
        <mxCell id="KSx7vq9sP2LpVvgyy4LP-88" style="edgeStyle=orthogonalEdgeStyle;rounded=0;orthogonalLoop=1;jettySize=auto;html=1;" parent="1" source="KSx7vq9sP2LpVvgyy4LP-58" target="KSx7vq9sP2LpVvgyy4LP-76" edge="1">
          <mxGeometry relative="1" as="geometry" />
        </mxCell>
        <mxCell id="KSx7vq9sP2LpVvgyy4LP-89" style="edgeStyle=orthogonalEdgeStyle;rounded=0;orthogonalLoop=1;jettySize=auto;html=1;entryX=0;entryY=0.5;entryDx=0;entryDy=0;" parent="1" source="KSx7vq9sP2LpVvgyy4LP-58" target="KSx7vq9sP2LpVvgyy4LP-75" edge="1">
          <mxGeometry relative="1" as="geometry" />
        </mxCell>
        <mxCell id="KSx7vq9sP2LpVvgyy4LP-91" style="edgeStyle=orthogonalEdgeStyle;rounded=0;orthogonalLoop=1;jettySize=auto;html=1;entryX=0;entryY=0.5;entryDx=0;entryDy=0;" parent="1" edge="1">
          <mxGeometry relative="1" as="geometry">
            <mxPoint x="182" y="616" as="sourcePoint" />
            <mxPoint x="363.3800000000001" y="695" as="targetPoint" />
            <Array as="points">
              <mxPoint x="182" y="621" />
              <mxPoint x="277" y="621" />
              <mxPoint x="277" y="695" />
            </Array>
          </mxGeometry>
        </mxCell>
        <mxCell id="KSx7vq9sP2LpVvgyy4LP-58" value="&lt;b&gt;ERP&lt;/b&gt;" style="image;aspect=fixed;html=1;points=[];align=center;fontSize=24;image=img/lib/azure2/general/Folder_Blank.svg;" parent="1" vertex="1">
          <mxGeometry x="116" y="594" width="69" height="56.00000000000001" as="geometry" />
        </mxCell>
        <mxCell id="KSx7vq9sP2LpVvgyy4LP-61" value="&lt;font style=&quot;font-size: 24px;&quot;&gt;&lt;b style=&quot;&quot;&gt;Sources&lt;/b&gt;&lt;/font&gt;" style="rounded=0;whiteSpace=wrap;html=1;fillColor=default;strokeColor=none;" parent="1" vertex="1">
          <mxGeometry x="100" y="118" width="100" height="60" as="geometry" />
        </mxCell>
        <mxCell id="KSx7vq9sP2LpVvgyy4LP-65" value="" style="rounded=1;whiteSpace=wrap;html=1;fillColor=none;strokeColor=#D6B656;" parent="1" vertex="1">
          <mxGeometry x="350" y="207" width="210" height="570" as="geometry" />
        </mxCell>
        <mxCell id="KSx7vq9sP2LpVvgyy4LP-67" value="&lt;font style=&quot;font-size: 20px;&quot;&gt;crm_sales _details&lt;/font&gt;" style="rounded=1;whiteSpace=wrap;html=1;fillColor=#ffe6cc;strokeColor=#d79b00;" parent="1" vertex="1">
          <mxGeometry x="369.25" y="250" width="170.75" height="60" as="geometry" />
        </mxCell>
        <mxCell id="KSx7vq9sP2LpVvgyy4LP-73" value="&lt;font style=&quot;font-size: 20px;&quot;&gt;crm_cust_info&lt;/font&gt;&lt;span style=&quot;color: rgba(0, 0, 0, 0); font-family: monospace; font-size: 0px; text-align: start; text-wrap-mode: nowrap;&quot;&gt;%3CmxGraphModel%3E%3Croot%3E%3CmxCell%20id%3D%220%22%2F%3E%3CmxCell%20id%3D%221%22%20parent%3D%220%22%2F%3E%3CmxCell%20id%3D%222%22%20value%3D%22%26lt%3Bfont%20style%3D%26quot%3Bfont-size%3A%2020px%3B%26quot%3B%26gt%3Bcrm_sales%20_details%26lt%3B%2Ffont%26gt%3B%22%20style%3D%22rounded%3D1%3BwhiteSpace%3Dwrap%3Bhtml%3D1%3BfillColor%3D%23ffe6cc%3BstrokeColor%3D%23d79b00%3B%22%20vertex%3D%221%22%20parent%3D%221%22%3E%3CmxGeometry%20x%3D%22369.25%22%20y%3D%22250%22%20width%3D%22170.75%22%20height%3D%2260%22%20as%3D%22geometry%22%2F%3E%3C%2FmxCell%3E%3C%2Froot%3E%3C%2FmxGraphModel%3E&lt;/span&gt;" style="rounded=1;whiteSpace=wrap;html=1;fillColor=#ffe6cc;strokeColor=#d79b00;" parent="1" vertex="1">
          <mxGeometry x="368.38" y="325" width="170.75" height="60" as="geometry" />
        </mxCell>
        <mxCell id="KSx7vq9sP2LpVvgyy4LP-74" value="&lt;span style=&quot;font-size: 20px;&quot;&gt;crm_prd_info&lt;/span&gt;" style="rounded=1;whiteSpace=wrap;html=1;fillColor=#ffe6cc;strokeColor=#d79b00;" parent="1" vertex="1">
          <mxGeometry x="366.38" y="398" width="170.75" height="60" as="geometry" />
        </mxCell>
        <mxCell id="KSx7vq9sP2LpVvgyy4LP-75" value="&lt;span style=&quot;font-size: 20px;&quot;&gt;erp_cust_as12&lt;/span&gt;" style="rounded=1;whiteSpace=wrap;html=1;fillColor=#ffe6cc;strokeColor=#d79b00;" parent="1" vertex="1">
          <mxGeometry x="369.25" y="520" width="170.75" height="60" as="geometry" />
        </mxCell>
        <mxCell id="KSx7vq9sP2LpVvgyy4LP-76" value="&lt;span style=&quot;font-size: 20px;&quot;&gt;erp_loc_a101&lt;/span&gt;" style="rounded=1;whiteSpace=wrap;html=1;fillColor=#ffe6cc;strokeColor=#d79b00;" parent="1" vertex="1">
          <mxGeometry x="369.25" y="593" width="170.75" height="60" as="geometry" />
        </mxCell>
        <mxCell id="KSx7vq9sP2LpVvgyy4LP-77" value="&lt;span style=&quot;font-size: 20px;&quot;&gt;erp_px_cat_g1v1&lt;/span&gt;" style="rounded=1;whiteSpace=wrap;html=1;fillColor=#ffe6cc;strokeColor=#d79b00;" parent="1" vertex="1">
          <mxGeometry x="366.38" y="664" width="170.75" height="60" as="geometry" />
        </mxCell>
        <mxCell id="KSx7vq9sP2LpVvgyy4LP-78" value="&lt;font style=&quot;font-size: 24px;&quot;&gt;Bronze Layer&lt;/font&gt;" style="rounded=1;whiteSpace=wrap;html=1;fillColor=#ffe6cc;strokeColor=#d79b00;" parent="1" vertex="1">
          <mxGeometry x="350" y="130" width="210" height="60" as="geometry" />
        </mxCell>
        <mxCell id="KSx7vq9sP2LpVvgyy4LP-79" value="&lt;b&gt;&lt;font style=&quot;font-size: 30px;&quot;&gt;Data Flow Diagram&lt;/font&gt;&lt;/b&gt;" style="rounded=0;whiteSpace=wrap;html=1;fillColor=none;strokeColor=none;" parent="1" vertex="1">
          <mxGeometry x="10" y="20" width="320" height="60" as="geometry" />
        </mxCell>
        <mxCell id="VH9Fn6Z8dsibo96sA8dl-1" value="" style="rounded=1;whiteSpace=wrap;html=1;fillColor=#f5f5f5;strokeColor=#666666;fontColor=#333333;" parent="1" vertex="1">
          <mxGeometry x="608" y="207" width="210" height="570" as="geometry" />
        </mxCell>
        <mxCell id="VH9Fn6Z8dsibo96sA8dl-2" value="&lt;font style=&quot;font-size: 20px;&quot;&gt;crm_sales _details&lt;/font&gt;" style="rounded=1;whiteSpace=wrap;html=1;fillColor=#f5f5f5;strokeColor=#666666;fontColor=#333333;" parent="1" vertex="1">
          <mxGeometry x="627.25" y="250" width="170.75" height="60" as="geometry" />
        </mxCell>
        <mxCell id="VH9Fn6Z8dsibo96sA8dl-3" value="&lt;font style=&quot;font-size: 20px;&quot;&gt;crm_cust_info&lt;/font&gt;&lt;span style=&quot;color: rgba(0, 0, 0, 0); font-family: monospace; font-size: 0px; text-align: start; text-wrap-mode: nowrap;&quot;&gt;%3CmxGraphModel%3E%3Croot%3E%3CmxCell%20id%3D%220%22%2F%3E%3CmxCell%20id%3D%221%22%20parent%3D%220%22%2F%3E%3CmxCell%20id%3D%222%22%20value%3D%22%26lt%3Bfont%20style%3D%26quot%3Bfont-size%3A%2020px%3B%26quot%3B%26gt%3Bcrm_sales%20_details%26lt%3B%2Ffont%26gt%3B%22%20style%3D%22rounded%3D1%3BwhiteSpace%3Dwrap%3Bhtml%3D1%3BfillColor%3D%23ffe6cc%3BstrokeColor%3D%23d79b00%3B%22%20vertex%3D%221%22%20parent%3D%221%22%3E%3CmxGeometry%20x%3D%22369.25%22%20y%3D%22250%22%20width%3D%22170.75%22%20height%3D%2260%22%20as%3D%22geometry%22%2F%3E%3C%2FmxCell%3E%3C%2Froot%3E%3C%2FmxGraphModel%3E&lt;/span&gt;" style="rounded=1;whiteSpace=wrap;html=1;fillColor=#f5f5f5;strokeColor=#666666;fontColor=#333333;" parent="1" vertex="1">
          <mxGeometry x="626.38" y="325" width="170.75" height="60" as="geometry" />
        </mxCell>
        <mxCell id="VH9Fn6Z8dsibo96sA8dl-4" value="&lt;span style=&quot;font-size: 20px;&quot;&gt;crm_prd_info&lt;/span&gt;" style="rounded=1;whiteSpace=wrap;html=1;fillColor=#f5f5f5;strokeColor=#666666;fontColor=#333333;" parent="1" vertex="1">
          <mxGeometry x="624.38" y="398" width="170.75" height="60" as="geometry" />
        </mxCell>
        <mxCell id="VH9Fn6Z8dsibo96sA8dl-5" value="&lt;span style=&quot;font-size: 20px;&quot;&gt;erp_cust_as12&lt;/span&gt;" style="rounded=1;whiteSpace=wrap;html=1;fillColor=#f5f5f5;strokeColor=#666666;fontColor=#333333;" parent="1" vertex="1">
          <mxGeometry x="627.25" y="520" width="170.75" height="60" as="geometry" />
        </mxCell>
        <mxCell id="VH9Fn6Z8dsibo96sA8dl-6" value="&lt;span style=&quot;font-size: 20px;&quot;&gt;erp_loc_a101&lt;/span&gt;" style="rounded=1;whiteSpace=wrap;html=1;fillColor=#f5f5f5;strokeColor=#666666;fontColor=#333333;" parent="1" vertex="1">
          <mxGeometry x="627.25" y="593" width="170.75" height="60" as="geometry" />
        </mxCell>
        <mxCell id="VH9Fn6Z8dsibo96sA8dl-7" value="&lt;span style=&quot;font-size: 20px;&quot;&gt;erp_px_cat_g1v1&lt;/span&gt;" style="rounded=1;whiteSpace=wrap;html=1;fillColor=#f5f5f5;strokeColor=#666666;fontColor=#333333;" parent="1" vertex="1">
          <mxGeometry x="624.38" y="664" width="170.75" height="60" as="geometry" />
        </mxCell>
        <mxCell id="VH9Fn6Z8dsibo96sA8dl-8" value="&lt;font style=&quot;font-size: 24px;&quot;&gt;Silver Layer&lt;/font&gt;" style="rounded=1;whiteSpace=wrap;html=1;fillColor=#f5f5f5;strokeColor=#666666;fontColor=#333333;" parent="1" vertex="1">
          <mxGeometry x="608" y="130" width="210" height="60" as="geometry" />
        </mxCell>
        <mxCell id="VH9Fn6Z8dsibo96sA8dl-17" style="edgeStyle=orthogonalEdgeStyle;rounded=0;orthogonalLoop=1;jettySize=auto;html=1;entryX=0;entryY=0.5;entryDx=0;entryDy=0;" parent="1" source="KSx7vq9sP2LpVvgyy4LP-67" target="VH9Fn6Z8dsibo96sA8dl-2" edge="1">
          <mxGeometry relative="1" as="geometry" />
        </mxCell>
        <mxCell id="VH9Fn6Z8dsibo96sA8dl-10" style="edgeStyle=orthogonalEdgeStyle;rounded=0;orthogonalLoop=1;jettySize=auto;html=1;entryX=0;entryY=0.5;entryDx=0;entryDy=0;" parent="1" source="KSx7vq9sP2LpVvgyy4LP-73" target="VH9Fn6Z8dsibo96sA8dl-3" edge="1">
          <mxGeometry relative="1" as="geometry" />
        </mxCell>
        <mxCell id="VH9Fn6Z8dsibo96sA8dl-11" style="edgeStyle=orthogonalEdgeStyle;rounded=0;orthogonalLoop=1;jettySize=auto;html=1;entryX=0;entryY=0.5;entryDx=0;entryDy=0;" parent="1" source="KSx7vq9sP2LpVvgyy4LP-74" target="VH9Fn6Z8dsibo96sA8dl-4" edge="1">
          <mxGeometry relative="1" as="geometry" />
        </mxCell>
        <mxCell id="VH9Fn6Z8dsibo96sA8dl-12" style="edgeStyle=orthogonalEdgeStyle;rounded=0;orthogonalLoop=1;jettySize=auto;html=1;entryX=0;entryY=0.5;entryDx=0;entryDy=0;" parent="1" source="KSx7vq9sP2LpVvgyy4LP-75" target="VH9Fn6Z8dsibo96sA8dl-5" edge="1">
          <mxGeometry relative="1" as="geometry" />
        </mxCell>
        <mxCell id="VH9Fn6Z8dsibo96sA8dl-13" style="edgeStyle=orthogonalEdgeStyle;rounded=0;orthogonalLoop=1;jettySize=auto;html=1;entryX=0;entryY=0.5;entryDx=0;entryDy=0;" parent="1" source="KSx7vq9sP2LpVvgyy4LP-76" target="VH9Fn6Z8dsibo96sA8dl-6" edge="1">
          <mxGeometry relative="1" as="geometry" />
        </mxCell>
        <mxCell id="VH9Fn6Z8dsibo96sA8dl-14" style="edgeStyle=orthogonalEdgeStyle;rounded=0;orthogonalLoop=1;jettySize=auto;html=1;entryX=0;entryY=0.5;entryDx=0;entryDy=0;" parent="1" source="KSx7vq9sP2LpVvgyy4LP-77" target="VH9Fn6Z8dsibo96sA8dl-7" edge="1">
          <mxGeometry relative="1" as="geometry" />
        </mxCell>
        <mxCell id="4J8UmH3qHqgSw4sRXJse-4" value="" style="rounded=1;whiteSpace=wrap;html=1;fillColor=#fff2cc;strokeColor=#d6b656;" vertex="1" parent="1">
          <mxGeometry x="919" y="207" width="210" height="570" as="geometry" />
        </mxCell>
        <mxCell id="4J8UmH3qHqgSw4sRXJse-5" value="&lt;span style=&quot;font-size: 20px;&quot;&gt;fact_sales&lt;/span&gt;" style="rounded=1;whiteSpace=wrap;html=1;fillColor=#fff2cc;strokeColor=#d6b656;" vertex="1" parent="1">
          <mxGeometry x="938.25" y="280" width="170.75" height="60" as="geometry" />
        </mxCell>
        <mxCell id="4J8UmH3qHqgSw4sRXJse-6" value="&lt;span style=&quot;font-size: 20px;&quot;&gt;dim_customers&lt;/span&gt;" style="rounded=1;whiteSpace=wrap;html=1;fillColor=#fff2cc;strokeColor=#d6b656;" vertex="1" parent="1">
          <mxGeometry x="940" y="425" width="168.13" height="60" as="geometry" />
        </mxCell>
        <mxCell id="4J8UmH3qHqgSw4sRXJse-7" value="&lt;span style=&quot;font-size: 20px;&quot;&gt;dim_products&lt;/span&gt;" style="rounded=1;whiteSpace=wrap;html=1;fillColor=#fff2cc;strokeColor=#d6b656;" vertex="1" parent="1">
          <mxGeometry x="935.38" y="571" width="170.75" height="60" as="geometry" />
        </mxCell>
        <mxCell id="4J8UmH3qHqgSw4sRXJse-11" value="&lt;font style=&quot;font-size: 24px;&quot;&gt;Gold Layer&lt;/font&gt;" style="rounded=1;whiteSpace=wrap;html=1;fillColor=#fff2cc;strokeColor=#d6b656;" vertex="1" parent="1">
          <mxGeometry x="919" y="130" width="210" height="60" as="geometry" />
        </mxCell>
        <mxCell id="4J8UmH3qHqgSw4sRXJse-18" value="" style="endArrow=classic;html=1;rounded=0;entryX=0;entryY=0.5;entryDx=0;entryDy=0;" edge="1" parent="1" source="VH9Fn6Z8dsibo96sA8dl-2" target="4J8UmH3qHqgSw4sRXJse-5">
          <mxGeometry width="50" height="50" relative="1" as="geometry">
            <mxPoint x="798" y="330" as="sourcePoint" />
            <mxPoint x="868.7106781186548" y="280" as="targetPoint" />
          </mxGeometry>
        </mxCell>
        <mxCell id="4J8UmH3qHqgSw4sRXJse-20" value="" style="endArrow=classic;html=1;rounded=0;entryX=0;entryY=0.5;entryDx=0;entryDy=0;exitX=1;exitY=0.5;exitDx=0;exitDy=0;jumpStyle=gap;" edge="1" parent="1" source="VH9Fn6Z8dsibo96sA8dl-3" target="4J8UmH3qHqgSw4sRXJse-6">
          <mxGeometry width="50" height="50" relative="1" as="geometry">
            <mxPoint x="840" y="615" as="sourcePoint" />
            <mxPoint x="979" y="520" as="targetPoint" />
          </mxGeometry>
        </mxCell>
        <mxCell id="4J8UmH3qHqgSw4sRXJse-23" value="" style="endArrow=classic;html=1;rounded=0;exitX=1;exitY=0.5;exitDx=0;exitDy=0;jumpStyle=gap;" edge="1" parent="1" source="VH9Fn6Z8dsibo96sA8dl-5">
          <mxGeometry width="50" height="50" relative="1" as="geometry">
            <mxPoint x="860" y="440" as="sourcePoint" />
            <mxPoint x="940" y="450" as="targetPoint" />
          </mxGeometry>
        </mxCell>
        <mxCell id="4J8UmH3qHqgSw4sRXJse-24" value="" style="endArrow=classic;html=1;rounded=0;exitX=1;exitY=0.5;exitDx=0;exitDy=0;jumpStyle=gap;" edge="1" parent="1" source="VH9Fn6Z8dsibo96sA8dl-6">
          <mxGeometry width="50" height="50" relative="1" as="geometry">
            <mxPoint x="870" y="500" as="sourcePoint" />
            <mxPoint x="940" y="450" as="targetPoint" />
          </mxGeometry>
        </mxCell>
        <mxCell id="4J8UmH3qHqgSw4sRXJse-25" value="" style="endArrow=classic;html=1;rounded=0;entryX=0;entryY=0.5;entryDx=0;entryDy=0;exitX=1;exitY=0.5;exitDx=0;exitDy=0;jumpStyle=gap;" edge="1" parent="1" source="VH9Fn6Z8dsibo96sA8dl-4" target="4J8UmH3qHqgSw4sRXJse-7">
          <mxGeometry width="50" height="50" relative="1" as="geometry">
            <mxPoint x="860" y="560" as="sourcePoint" />
            <mxPoint x="1003" y="660" as="targetPoint" />
          </mxGeometry>
        </mxCell>
        <mxCell id="4J8UmH3qHqgSw4sRXJse-26" value="" style="endArrow=classic;html=1;rounded=0;exitX=1;exitY=0.5;exitDx=0;exitDy=0;entryX=0;entryY=0.5;entryDx=0;entryDy=0;jumpStyle=gap;" edge="1" parent="1" source="VH9Fn6Z8dsibo96sA8dl-7" target="4J8UmH3qHqgSw4sRXJse-7">
          <mxGeometry width="50" height="50" relative="1" as="geometry">
            <mxPoint x="880" y="600" as="sourcePoint" />
            <mxPoint x="930" y="600" as="targetPoint" />
          </mxGeometry>
        </mxCell>
      </root>
    </mxGraphModel>
  </diagram>
</mxfile>
